<?xml version="1.0" encoding="utf-8"?>
<!-- Generator: Adobe Illustrator 18.1.1, SVG Export Plug-In . SVG Version: 6.00 Build 0)  -->
<!DOCTYPE svg PUBLIC "-//W3C//DTD SVG 1.1//EN" "http://www.w3.org/Graphics/SVG/1.1/DTD/svg11.dtd">
<svg version="1.1" id="Layer_1" xmlns="http://www.w3.org/2000/svg" xmlns:xlink="http://www.w3.org/1999/xlink" x="0px" y="0px"
	 viewBox="0 0 255.1 79.4" enable-background="new 0 0 255.1 79.4" xml:space="preserve">
<g>
	<g>
		<g>
			<defs>
				<polygon id="SVGID_1_" points="44.2,16.6 44.2,16.6 44.2,16.4 				"/>
			</defs>
			<clipPath id="SVGID_2_">
				<use xlink:href="#SVGID_1_"  overflow="visible"/>
			</clipPath>
			<polygon clip-path="url(#SVGID_2_)" points="44.2,16.4 44.2,16.4 44.2,16.6 			"/>
		</g>
	</g>
	<g>
		<g>
			<defs>
				<rect id="SVGID_3_" x="38.1" y="11.2" width="8.5" height="10.4"/>
			</defs>
			<clipPath id="SVGID_4_">
				<use xlink:href="#SVGID_3_"  overflow="visible"/>
			</clipPath>
			<path clip-path="url(#SVGID_4_)" fill="#37BCED" d="M42.3,21.6c-2.3,0-4.3-1.9-4.3-4.3c0-0.2,0-0.3,0-0.5
				c0.1-0.5,0.4-1.7,1.6-2.9c0.1-0.1,0.1-0.1,0.2-0.2l2.5-2.6l2.8,2.9c0.9,1,1.2,1.9,1.4,2.4c0.1,0.3,0.1,0.5,0.1,0.8
				C46.6,19.7,44.7,21.6,42.3,21.6"/>
		</g>
	</g>
	<g>
		<g>
			<defs>
				<rect id="SVGID_5_" x="32.8" y="3.8" width="9.5" height="8.5"/>
			</defs>
			<clipPath id="SVGID_6_">
				<use xlink:href="#SVGID_5_"  overflow="visible"/>
			</clipPath>
			<path clip-path="url(#SVGID_6_)" fill="#46AD4A" d="M33.4,5.9c-1.2,2-0.5,4.6,1.5,5.8c0.1,0.1,0.3,0.2,0.5,0.2
				c0.4,0.2,1.6,0.5,3.3,0.1c0.1,0,0.2,0,0.2,0l3.5-0.8l-1-3.9c-0.4-1.3-1-2-1.4-2.4c-0.2-0.2-0.4-0.3-0.7-0.5
				C37.2,3.2,34.6,3.9,33.4,5.9"/>
		</g>
	</g>
	<g>
		<g>
			<defs>
				<rect id="SVGID_7_" x="42.3" y="10.2" width="9.5" height="8.5"/>
			</defs>
			<clipPath id="SVGID_8_">
				<use xlink:href="#SVGID_7_"  overflow="visible"/>
			</clipPath>
			<path clip-path="url(#SVGID_8_)" fill="#7F3186" d="M51.2,16.6c-1.2,2-3.8,2.7-5.8,1.5c-0.1-0.1-0.3-0.2-0.4-0.3
				c-0.4-0.3-1.2-1.2-1.7-2.8c0-0.1,0-0.1-0.1-0.2l-0.9-3.5l3.9-0.9c1.3-0.3,2.3-0.1,2.8,0.1c0.3,0.1,0.5,0.2,0.8,0.4
				C51.8,11.9,52.5,14.5,51.2,16.6"/>
		</g>
	</g>
	<g>
		<g>
			<defs>
				<rect id="SVGID_9_" x="42.3" y="3.8" width="9.5" height="8.5"/>
			</defs>
			<clipPath id="SVGID_10_">
				<use xlink:href="#SVGID_9_"  overflow="visible"/>
			</clipPath>
			<path clip-path="url(#SVGID_10_)" fill="#F3E608" d="M51.2,5.9c1.2,2,0.5,4.6-1.5,5.8c-0.1,0.1-0.3,0.2-0.5,0.2
				c-0.4,0.2-1.6,0.5-3.3,0.1c-0.1,0-0.2,0-0.2,0l-3.5-0.8l1-3.9c0.4-1.3,1-2,1.4-2.4c0.2-0.2,0.4-0.3,0.7-0.5
				C47.4,3.2,50,3.9,51.2,5.9"/>
		</g>
	</g>
	<g>
		<g>
			<defs>
				<rect id="SVGID_11_" x="32.8" y="10.2" width="9.5" height="8.5"/>
			</defs>
			<clipPath id="SVGID_12_">
				<use xlink:href="#SVGID_11_"  overflow="visible"/>
			</clipPath>
			<path clip-path="url(#SVGID_12_)" fill="#E32136" d="M33.4,16.6c1.2,2,3.8,2.7,5.8,1.5c0.1-0.1,0.3-0.2,0.4-0.3
				c0.4-0.3,1.2-1.2,1.7-2.8c0-0.1,0-0.1,0.1-0.2l0.9-3.5l-3.9-0.9c-1.3-0.3-2.3-0.1-2.8,0.1c-0.3,0.1-0.5,0.2-0.8,0.4
				C32.9,11.9,32.2,14.5,33.4,16.6"/>
		</g>
	</g>
	<g>
		<g>
			<defs>
				<rect id="SVGID_13_" x="38.1" y="0.9" width="8.5" height="10.4"/>
			</defs>
			<clipPath id="SVGID_14_">
				<use xlink:href="#SVGID_13_"  overflow="visible"/>
			</clipPath>
			<path clip-path="url(#SVGID_14_)" fill="#E11E84" d="M42.3,0.9c-2.3,0-4.3,1.9-4.3,4.3c0,0.2,0,0.3,0,0.5
				c0.1,0.5,0.4,1.7,1.6,2.9c0.1,0.1,0.1,0.1,0.2,0.2l2.5,2.6l2.8-2.9c0.9-1,1.2-1.9,1.4-2.4c0.1-0.3,0.1-0.5,0.1-0.8
				C46.6,2.8,44.7,0.9,42.3,0.9"/>
		</g>
	</g>
	<path fill="#221F1F" d="M32.2,46.7V31.7c0-3.2-2.6-5.7-5.7-5.7c-3.2,0-5.7,2.6-5.7,5.7v15.1c0,1.7-2.6,1.7-2.6,0V31.7
		c0-3.2-2.6-5.7-5.7-5.7c-3.2,0-5.7,2.6-5.7,5.7v15.1c0,1.7-2.6,1.7-2.6,0V25.4c0-1.7,2.6-1.7,2.6,0v0.3c1.5-1.4,3.5-2.3,5.7-2.3
		c3,0,5.5,1.5,7,3.8c1.5-2.3,4-3.8,7-3.8c4.6,0,8.3,3.7,8.3,8.2v15.1C34.7,48.4,32.2,48.4,32.2,46.7"/>
	<path fill="#221F1F" d="M40.7,46.7V25.4c0-1.7,2.6-1.7,2.6,0v21.3C43.3,48.4,40.7,48.4,40.7,46.7"/>
	<path fill="#221F1F" d="M80.2,58.3c-2.5,0-6.6-0.6-8.7-2.2c-1.3-1,0.2-3.1,1.5-2c0,0,0.6,0.4,1.6,0.8c1.2,0.4,3,0.9,5.5,0.9
		c5.7,0,8.7-2.8,8.7-8.4v-3.2C86.9,46.6,84,48,80.2,48c-7.1,0-11.3-5-11.3-11.9c0-6.8,4-12.7,11.3-12.7c3.8,0,6.8,1.7,8.7,4.3v-2.2
		c0-1.7,2.6-1.7,2.6,0v10.6v11.3C91.4,54.4,87.1,58.3,80.2,58.3 M80.2,25.9c-5.4,0-8.7,4.3-8.7,10.1c0,5.7,3.2,9.4,8.7,9.4
		c5.5,0,8.7-3.6,8.7-9.4C88.9,30.2,85.5,25.9,80.2,25.9"/>
	<path fill="#221F1F" d="M114.6,46.7v-1.4c-1.9,2.2-4.6,3.5-7.7,3.5c-5.6,0-10.2-4.6-10.2-10.2V25.4c0-1.7,2.6-1.7,2.6,0v13.1
		c0,4.3,3.4,7.7,7.7,7.7c4.3,0,7.7-3.4,7.7-7.7V25.4c0-1.7,2.6-1.7,2.6,0v21.3C117.2,48.4,114.6,48.4,114.6,46.7"/>
	<path fill="#221F1F" d="M146.2,48c-1.5,0-3.6-0.8-4.5-3.5c-1.9,2.6-4.9,4.3-8.7,4.3c-7.2,0-11.3-5.9-11.3-12.7
		c0-6.8,4-12.7,11.3-12.7c3.8,0,6.8,1.7,8.7,4.3v-2.2c0-1.7,2.6-1.7,2.6,0v18.1c0,1.1,0.9,1.9,1.9,1.9C148,45.5,148,48,146.2,48
		L146.2,48z M133,25.9c-5.4,0-8.7,4.3-8.7,10.1c0,5.8,3.3,10.1,8.7,10.1c5.4,0,8.7-4.3,8.7-10.1C141.8,30.2,138.4,25.9,133,25.9"/>
	<path fill="#221F1F" d="M153.7,33.6v13.1c0,1.7-2.6,1.7-2.6,0V25.4c0-1.7,2.6-1.7,2.6,0v1.4c1.9-2.2,4.6-3.5,7.7-3.5
		c1.7,0,1.7,2.6,0,2.6C157.1,25.9,153.7,29.4,153.7,33.6"/>
	<path fill="#221F1F" d="M184.2,46.7v-2.2c-1.9,2.6-4.9,4.3-8.7,4.3c-7.2,0-11.3-5.9-11.3-12.7c0-6.8,4-12.7,11.3-12.7
		c3.8,0,6.8,1.7,8.7,4.3V17.3c0-1.7,2.6-1.7,2.6,0v18.8v10.7C186.7,48.4,184.2,48.4,184.2,46.7 M175.5,25.9c-5.4,0-8.7,4.3-8.7,10.1
		c0,5.8,3.3,10.1,8.7,10.1c5.4,0,8.7-4.3,8.7-10.1C184.2,30.2,180.8,25.9,175.5,25.9"/>
	<path fill="#221F1F" d="M194.4,19.8c-1.4,0-2.6-1.1-2.6-2.6s1.1-2.6,2.6-2.6c1.4,0,2.6,1.1,2.6,2.6S195.9,19.8,194.4,19.8
		 M193.1,46.7V25.4c0-1.7,2.6-1.7,2.6,0v21.3C195.7,48.4,193.1,48.4,193.1,46.7"/>
	<path fill="#221F1F" d="M225.5,48c-1.5,0-3.6-0.8-4.5-3.5c-1.9,2.6-4.9,4.3-8.7,4.3c-7.2,0-11.3-5.9-11.3-12.7
		c0-6.8,4-12.7,11.3-12.7c3.8,0,6.8,1.7,8.7,4.3v-2.2c0-1.7,2.6-1.7,2.6,0v18.1c0,1.1,0.9,1.9,1.9,1.9C227.3,45.5,227.3,48,225.5,48
		L225.5,48z M212.4,25.9c-5.4,0-8.7,4.3-8.7,10.1c0,5.8,3.3,10.1,8.7,10.1c5.4,0,8.7-4.3,8.7-10.1C221.1,30.2,217.7,25.9,212.4,25.9
		"/>
	<path fill="#221F1F" d="M248.4,46.7V33.6c0-4.3-3.4-7.7-7.7-7.7c-4.3,0-7.7,3.4-7.7,7.7v13.1c0,1.7-2.6,1.7-2.6,0V25.4
		c0-1.7,2.6-1.7,2.6,0v1.4c1.9-2.2,4.6-3.5,7.7-3.5c5.6,0,10.2,4.6,10.2,10.2v13.1C250.9,48.4,248.4,48.4,248.4,46.7"/>
	<path fill="#221F1F" d="M49.9,37.3c-1.7,0-1.7-2.6,0-2.6H64c1.7,0,1.7,2.6,0,2.6H49.9z"/>
	<path fill="#221F1F" d="M12.3,71.5c0,2.3-1.3,4.2-3.7,4.2c-0.9,0-1.5-0.3-2.1-0.7c-0.4,0.7-1.6,0.5-1.6-0.4v-8.9
		c0-0.6,0.4-0.8,0.8-0.8c0.4,0,0.8,0.3,0.8,0.8v2.2c0.6-0.4,1.2-0.6,2-0.6C11,67.3,12.3,69.2,12.3,71.5 M10.6,71.5
		c0-1.6-0.9-2.5-2-2.5c-1.2,0-2,0.9-2,2.5s0.9,2.5,2,2.5C9.8,74,10.6,73.1,10.6,71.5"/>
	<path fill="#221F1F" d="M17,77.4c-0.3,0.7-1,1.1-1.7,1.1H15c-0.6,0-0.8-0.4-0.8-0.8c0-0.4,0.3-0.8,0.8-0.8h0.3c0.1,0,0.1,0,0.2-0.1
		l1.1-2.4l-2.7-5.6c-0.5-1,1-1.8,1.5-0.7l2.1,4.3l2-4.3c0.4-1,2-0.3,1.5,0.7L17,77.4z"/>
	<path fill="#221F1F" d="M36.7,74.6c0,0.6-0.4,0.8-0.8,0.8c-0.4,0-0.8-0.3-0.8-0.8V69l-2.2,4.1c-0.1,0.1-0.1,0.2-0.2,0.3
		c-0.2,0.2-0.4,0.3-0.6,0.3c-0.3,0-0.5-0.1-0.6-0.3c-0.1-0.1-0.1-0.2-0.2-0.3L29,69v5.6c0,0.6-0.4,0.8-0.8,0.8
		c-0.4,0-0.8-0.3-0.8-0.8v-8.8c0-0.2,0-0.4,0.1-0.5c0.1-0.2,0.3-0.4,0.6-0.4c0.4-0.1,0.7-0.1,1,0.5l3.1,5.7l3.1-5.8
		c0.3-0.6,0.6-0.6,1-0.5c0.3,0.1,0.4,0.2,0.6,0.4c0.1,0.2,0.1,0.3,0.1,0.5V74.6z"/>
	<path fill="#221F1F" d="M41.6,65.2c0,0.7-0.6,1.3-1.3,1.3c-0.7,0-1.3-0.6-1.3-1.3c0-0.7,0.6-1.3,1.3-1.3
		C41.1,64,41.6,64.5,41.6,65.2 M41.2,74.6c0,0.6-0.5,0.8-0.8,0.8c-0.4,0-0.8-0.3-0.8-0.8v-6.2c0-0.6,0.5-0.8,0.8-0.8
		c0.4,0,0.8,0.3,0.8,0.8V74.6z"/>
	<path fill="#221F1F" d="M45.6,73.7c0.9,0.2,0.8,1.7-0.2,1.7c-0.8,0-1.5-0.7-1.5-1.5v-8.2c0-0.6,0.4-0.8,0.8-0.8
		c0.4,0,0.8,0.3,0.8,0.8V73.7z"/>
	<path fill="#221F1F" d="M50.1,73.7c0.9,0.2,0.8,1.7-0.2,1.7c-0.8,0-1.5-0.7-1.5-1.5v-8.2c0-0.6,0.4-0.8,0.8-0.8
		c0.4,0,0.8,0.3,0.8,0.8V73.7z"/>
	<path fill="#221F1F" d="M60.4,71.5c0,2.3-1.3,4.2-3.7,4.2c-0.9,0-1.5-0.3-2.1-0.7c-0.4,0.7-1.6,0.5-1.6-0.4v-8.9
		c0-0.6,0.4-0.8,0.8-0.8c0.4,0,0.8,0.3,0.8,0.8v2.2c0.6-0.4,1.2-0.6,2-0.6C59,67.3,60.4,69.2,60.4,71.5 M58.7,71.5
		c0-1.6-0.9-2.5-2-2.5s-2,0.9-2,2.5s0.9,2.5,2,2.5S58.7,73.1,58.7,71.5"/>
	<path fill="#221F1F" d="M66.2,68.9c-0.9,0-1.7,0.7-1.7,1.7v3.9c0,0.6-0.4,0.8-0.8,0.8c-0.4,0-0.8-0.3-0.8-0.8v-3.9v-2.3
		c0-0.9,1.1-1.1,1.5-0.5c0.6-0.4,1.2-0.6,1.9-0.6c0.6,0,0.8,0.4,0.8,0.8C67,68.5,66.7,68.9,66.2,68.9"/>
	<path fill="#221F1F" d="M75.7,71.5c0,2.3-1.3,4.2-3.7,4.2c-2.4,0-3.7-1.9-3.7-4.2c0-2.3,1.3-4.2,3.7-4.2
		C74.3,67.3,75.7,69.2,75.7,71.5 M74,71.5c0-1.6-0.9-2.5-2-2.5s-2,0.9-2,2.5s0.9,2.5,2,2.5S74,73.1,74,71.5"/>
	<path fill="#221F1F" d="M85.2,71.5c0,2.3-1.3,4.2-3.7,4.2c-2.4,0-3.7-1.9-3.7-4.2c0-2.3,1.3-4.2,3.7-4.2
		C83.8,67.3,85.2,69.2,85.2,71.5 M83.5,71.5c0-1.6-0.9-2.5-2-2.5s-2,0.9-2,2.5s0.9,2.5,2,2.5S83.5,73.1,83.5,71.5"/>
	<path fill="#221F1F" d="M93.6,74.1c0.6,0.9-0.8,1.8-1.4,0.9l-1.9-2.9l-1,1l0,0v1.5c0,0.6-0.5,0.8-0.8,0.8c-0.4,0-0.8-0.3-0.8-0.8
		v-8.9c0-0.6,0.5-0.8,0.8-0.8c0.4,0,0.8,0.3,0.8,0.8v5l2.9-2.9c0.8-0.8,2,0.4,1.2,1.2l-1.9,1.9L93.6,74.1z"/>
	<path fill="#221F1F" d="M107.4,74.6c0,0.6-0.5,0.8-0.8,0.8c-0.4,0-0.8-0.3-0.8-0.8v-4h-4.1v4c0,0.6-0.5,0.8-0.8,0.8
		c-0.4,0-0.8-0.3-0.8-0.8v-8.9c0-0.6,0.5-0.8,0.8-0.8c0.4,0,0.8,0.3,0.8,0.8v3.2h4.1v-3.2c0-0.6,0.5-0.8,0.8-0.8
		c0.4,0,0.8,0.3,0.8,0.8V74.6z"/>
	<path fill="#221F1F" d="M117.2,71.5c0,0.4-0.3,0.8-0.8,0.8h-4.8c0.3,1.1,1,1.7,1.9,1.7c0.5,0,1-0.2,1.3-0.5
		c0.8-0.8,2.1,0.4,1.3,1.2c0,0-0.1,0.1-0.2,0.2c-0.7,0.5-1.5,0.8-2.4,0.8c-2.4,0-3.7-2-3.7-4.2c0-2.2,1.3-4.2,3.7-4.2
		c2.2,0,3.5,1.7,3.7,3.7C117.2,71.1,117.2,71.3,117.2,71.5 M115.5,70.6c-0.3-1.1-1-1.7-1.9-1.7c-1,0-1.7,0.6-1.9,1.7H115.5z"/>
	<path fill="#221F1F" d="M127.7,74.5c0,0.5-0.4,0.9-0.9,0.9c-0.6,0-1.1-0.3-1.4-0.7c-0.6,0.6-1.5,1-2.5,1c-2.4,0-3.7-2-3.7-4.2
		c0-2.2,1.3-4.2,3.7-4.2c0.9,0,1.6,0.3,2.1,0.7c0.2-0.3,0.5-0.4,0.7-0.4c0.5,0,0.8,0.4,0.8,0.8v5c0,0.2,0.1,0.2,0.2,0.2
		C127.3,73.6,127.7,74,127.7,74.5 M124.9,71.5c0-1.6-0.9-2.5-2-2.5s-2,0.9-2,2.5s0.9,2.5,2,2.5S124.9,73.1,124.9,71.5"/>
	<path fill="#221F1F" d="M131.2,73.7c0.9,0.2,0.8,1.7-0.2,1.7c-0.8,0-1.5-0.7-1.5-1.5v-8.2c0-0.6,0.4-0.8,0.8-0.8
		c0.4,0,0.8,0.3,0.8,0.8V73.7z"/>
	<path fill="#221F1F" d="M137.2,68.4c0,0.5-0.4,0.8-0.8,0.8h-0.5v4.3c0,0.1,0.1,0.2,0.2,0.2h0.3c0.5,0,0.8,0.4,0.8,0.8
		s-0.4,0.8-0.8,0.8h0c-1.6,0-2.2-0.9-2.2-2.2v-4h0c-0.6,0-0.8-0.5-0.8-0.8c0-0.4,0.3-0.8,0.8-0.8h0v-1.8c0-0.6,0.5-0.8,0.8-0.8
		s0.8,0.3,0.8,0.8v1.8h0.5C136.9,67.5,137.2,68,137.2,68.4"/>
	<path fill="#221F1F" d="M146.1,74.6c0,0.6-0.4,0.8-0.8,0.8c-0.4,0-0.8-0.3-0.8-0.8v-3.9c0-0.9-0.7-1.7-1.7-1.7
		c-0.9,0-1.7,0.7-1.7,1.7v3.9c0,0.6-0.4,0.9-0.8,0.9c-0.4,0-0.8-0.3-0.8-0.9v-8.9c0-0.6,0.4-0.8,0.8-0.8c0.4,0,0.8,0.3,0.8,0.8v2
		c0.5-0.3,1.1-0.5,1.7-0.5c1.8,0,3.4,1.5,3.4,3.4V74.6z"/>
	<path fill="#221F1F" d="M154.8,68.4c0.8,0.8-0.5,2-1.3,1.1c-0.3-0.3-0.8-0.6-1.4-0.6c-1.2,0-2,0.9-2,2.5s0.9,2.5,2,2.5
		c0.6,0,1.1-0.2,1.4-0.6c0.8-0.8,2,0.3,1.3,1.1c-0.7,0.7-1.6,1.1-2.7,1.1c-2.4,0-3.7-1.9-3.7-4.2c0-2.3,1.3-4.2,3.7-4.2
		C153.2,67.3,154.1,67.7,154.8,68.4"/>
	<path fill="#221F1F" d="M165.4,74.5c0,0.5-0.4,0.9-0.9,0.9c-0.6,0-1.1-0.3-1.4-0.7c-0.6,0.6-1.5,1-2.5,1c-2.4,0-3.7-2-3.7-4.2
		c0-2.2,1.3-4.2,3.7-4.2c0.9,0,1.6,0.3,2.1,0.7c0.2-0.3,0.5-0.4,0.7-0.4c0.5,0,0.8,0.4,0.8,0.8v5c0,0.2,0.1,0.2,0.2,0.2
		C165,73.6,165.4,74,165.4,74.5 M162.6,71.5c0-1.6-0.9-2.5-2-2.5s-2,0.9-2,2.5s0.9,2.5,2,2.5S162.6,73.1,162.6,71.5"/>
	<path fill="#221F1F" d="M170.7,68.9c-0.9,0-1.7,0.7-1.7,1.7v3.9c0,0.6-0.4,0.8-0.8,0.8c-0.4,0-0.8-0.3-0.8-0.8v-3.9v-2.3
		c0-0.9,1.1-1.1,1.5-0.5c0.6-0.4,1.2-0.6,1.9-0.6c0.6,0,0.8,0.4,0.8,0.8C171.5,68.5,171.2,68.9,170.7,68.9"/>
	<path fill="#221F1F" d="M179.8,71.5c0,0.4-0.3,0.8-0.8,0.8h-4.8c0.3,1.1,1,1.7,1.9,1.7c0.5,0,1-0.2,1.3-0.5
		c0.8-0.8,2.1,0.4,1.3,1.2c0,0-0.1,0.1-0.2,0.2c-0.7,0.5-1.5,0.8-2.4,0.8c-2.4,0-3.7-2-3.7-4.2c0-2.2,1.3-4.2,3.7-4.2
		c2.2,0,3.5,1.7,3.7,3.7C179.8,71.1,179.8,71.3,179.8,71.5 M178.1,70.6c-0.3-1.1-1-1.7-1.9-1.7c-1,0-1.7,0.6-1.9,1.7H178.1z"/>
</g>
</svg>
