<?xml version="1.0" encoding="utf-8"?>
<!-- Generator: Adobe Illustrator 18.1.1, SVG Export Plug-In . SVG Version: 6.00 Build 0)  -->
<!DOCTYPE svg PUBLIC "-//W3C//DTD SVG 1.1//EN" "http://www.w3.org/Graphics/SVG/1.1/DTD/svg11.dtd">
<svg version="1.1" id="Layer_1" xmlns="http://www.w3.org/2000/svg" xmlns:xlink="http://www.w3.org/1999/xlink" x="0px" y="0px"
	 viewBox="0 68.7 200 62.6" enable-background="new 0 68.7 200 62.6" xml:space="preserve">
<g>
	<g>
		<g>
			<g>
				<defs>
					<polygon id="SVGID_1_" points="34.7,81.9 34.7,81.9 34.7,81.7 					"/>
				</defs>
				<clipPath id="SVGID_2_">
					<use xlink:href="#SVGID_1_"  overflow="visible"/>
				</clipPath>
				<polygon clip-path="url(#SVGID_2_)" points="34.7,81.7 34.7,81.7 34.7,81.9 				"/>
			</g>
		</g>
	</g>
	<g>
		<g>
			<g>
				<defs>
					<rect id="SVGID_3_" x="29.9" y="77.7" width="6.7" height="8.2"/>
				</defs>
				<clipPath id="SVGID_4_">
					<use xlink:href="#SVGID_3_"  overflow="visible"/>
				</clipPath>
				<path clip-path="url(#SVGID_4_)" fill="#37BCED" d="M33.2,85.8c-1.8,0-3.4-1.5-3.4-3.4c0-0.2,0-0.2,0-0.4
					c0.1-0.4,0.3-1.3,1.3-2.3c0.1-0.1,0.1-0.1,0.2-0.2l2-2l2.2,2.3c0.7,0.8,0.9,1.5,1.1,1.9c0.1,0.2,0.1,0.4,0.1,0.6
					C36.5,84.3,35,85.8,33.2,85.8"/>
			</g>
		</g>
	</g>
	<g>
		<g>
			<g>
				<defs>
					<rect id="SVGID_5_" x="25.7" y="71.9" width="7.4" height="6.7"/>
				</defs>
				<clipPath id="SVGID_6_">
					<use xlink:href="#SVGID_5_"  overflow="visible"/>
				</clipPath>
				<path clip-path="url(#SVGID_6_)" fill="#46AD4A" d="M26.2,73.5c-0.9,1.6-0.4,3.6,1.2,4.5c0.1,0.1,0.2,0.2,0.4,0.2
					c0.3,0.2,1.3,0.4,2.6,0.1c0.1,0,0.2,0,0.2,0l2.7-0.6l-0.8-3.1c-0.3-1-0.8-1.6-1.1-1.9c-0.2-0.2-0.3-0.2-0.5-0.4
					C29.2,71.4,27.1,71.9,26.2,73.5"/>
			</g>
		</g>
	</g>
	<g>
		<g>
			<g>
				<defs>
					<rect id="SVGID_7_" x="33.2" y="76.9" width="7.4" height="6.7"/>
				</defs>
				<clipPath id="SVGID_8_">
					<use xlink:href="#SVGID_7_"  overflow="visible"/>
				</clipPath>
				<path clip-path="url(#SVGID_8_)" fill="#7F3186" d="M40.1,81.9c-0.9,1.6-3,2.1-4.5,1.2c-0.1-0.1-0.2-0.2-0.3-0.2
					c-0.3-0.2-0.9-0.9-1.3-2.2c0-0.1,0-0.1-0.1-0.2l-0.7-2.7l3.1-0.7c1-0.2,1.8-0.1,2.2,0.1c0.2,0.1,0.4,0.2,0.6,0.3
					C40.6,78.2,41.2,80.2,40.1,81.9"/>
			</g>
		</g>
	</g>
	<g>
		<g>
			<g>
				<defs>
					<rect id="SVGID_9_" x="33.2" y="71.9" width="7.4" height="6.7"/>
				</defs>
				<clipPath id="SVGID_10_">
					<use xlink:href="#SVGID_9_"  overflow="visible"/>
				</clipPath>
				<path clip-path="url(#SVGID_10_)" fill="#F3E608" d="M40.1,73.5c0.9,1.6,0.4,3.6-1.2,4.5c-0.1,0.1-0.2,0.2-0.4,0.2
					c-0.3,0.2-1.3,0.4-2.6,0.1c-0.1,0-0.2,0-0.2,0l-2.7-0.6l0.8-3.1c0.3-1,0.8-1.6,1.1-1.9c0.2-0.2,0.3-0.2,0.5-0.4
					C37.2,71.4,39.2,71.9,40.1,73.5"/>
			</g>
		</g>
	</g>
	<g>
		<g>
			<g>
				<defs>
					<rect id="SVGID_11_" x="25.7" y="76.9" width="7.4" height="6.7"/>
				</defs>
				<clipPath id="SVGID_12_">
					<use xlink:href="#SVGID_11_"  overflow="visible"/>
				</clipPath>
				<path clip-path="url(#SVGID_12_)" fill="#E32136" d="M26.2,81.9c0.9,1.6,3,2.1,4.5,1.2c0.1-0.1,0.2-0.2,0.3-0.2
					c0.3-0.2,0.9-0.9,1.3-2.2c0-0.1,0-0.1,0.1-0.2l0.7-2.7L30.1,77c-1-0.2-1.8-0.1-2.2,0.1c-0.2,0.1-0.4,0.2-0.6,0.3
					C25.8,78.2,25.2,80.2,26.2,81.9"/>
			</g>
		</g>
	</g>
	<g>
		<g>
			<g>
				<defs>
					<rect id="SVGID_13_" x="29.9" y="69.6" width="6.7" height="8.2"/>
				</defs>
				<clipPath id="SVGID_14_">
					<use xlink:href="#SVGID_13_"  overflow="visible"/>
				</clipPath>
				<path clip-path="url(#SVGID_14_)" fill="#E11E84" d="M33.2,69.6c-1.8,0-3.4,1.5-3.4,3.4c0,0.2,0,0.2,0,0.4
					c0.1,0.4,0.3,1.3,1.3,2.3c0.1,0.1,0.1,0.1,0.2,0.2l2,2l2.2-2.3c0.7-0.8,0.9-1.5,1.1-1.9c0.1-0.2,0.1-0.4,0.1-0.6
					C36.5,71.1,35,69.6,33.2,69.6"/>
			</g>
		</g>
	</g>
	<path fill="#221F1F" d="M25.2,105.5V93.7c0-2.5-2-4.5-4.5-4.5c-2.5,0-4.5,2-4.5,4.5v11.8c0,1.3-2,1.3-2,0V93.7c0-2.5-2-4.5-4.5-4.5
		c-2.5,0-4.5,2-4.5,4.5v11.8c0,1.3-2,1.3-2,0V88.8c0-1.3,2-1.3,2,0V89c1.2-1.1,2.7-1.8,4.5-1.8c2.4,0,4.3,1.2,5.5,3
		c1.2-1.8,3.1-3,5.5-3c3.6,0,6.5,2.9,6.5,6.4v11.8C27.2,106.8,25.2,106.8,25.2,105.5"/>
	<path fill="#221F1F" d="M31.9,105.5V88.8c0-1.3,2-1.3,2,0v16.7C33.9,106.8,31.9,106.8,31.9,105.5"/>
	<path fill="#221F1F" d="M62.9,114.6c-2,0-5.2-0.5-6.8-1.7c-1-0.8,0.2-2.4,1.2-1.6c0,0,0.5,0.3,1.3,0.6c0.9,0.3,2.4,0.7,4.3,0.7
		c4.5,0,6.8-2.2,6.8-6.6v-2.5c-1.5,1.9-3.8,3-6.7,3c-5.6,0-8.9-3.9-8.9-9.3c0-5.3,3.1-10,8.9-10c3,0,5.3,1.3,6.8,3.4v-1.7
		c0-1.3,2-1.3,2,0v8.3v8.9C71.7,111.5,68.3,114.6,62.9,114.6 M62.9,89.2c-4.2,0-6.8,3.4-6.8,7.9c0,4.5,2.5,7.4,6.8,7.4
		s6.8-2.8,6.8-7.4C69.7,92.6,67,89.2,62.9,89.2"/>
	<path fill="#221F1F" d="M89.8,105.5v-1.1c-1.5,1.7-3.6,2.7-6,2.7c-4.4,0-8-3.6-8-8V88.8c0-1.3,2-1.3,2,0v10.3c0,3.4,2.7,6,6,6
		c3.4,0,6-2.7,6-6V88.8c0-1.3,2-1.3,2,0v16.7C91.9,106.8,89.8,106.8,89.8,105.5"/>
	<path fill="#221F1F" d="M114.6,106.5c-1.2,0-2.8-0.6-3.5-2.7c-1.5,2-3.8,3.4-6.8,3.4c-5.6,0-8.9-4.6-8.9-10c0-5.3,3.1-10,8.9-10
		c3,0,5.3,1.3,6.8,3.4v-1.7c0-1.3,2-1.3,2,0v14.2c0,0.9,0.7,1.5,1.5,1.5C116,104.5,116,106.5,114.6,106.5L114.6,106.5z M104.3,89.2
		c-4.2,0-6.8,3.4-6.8,7.9s2.6,7.9,6.8,7.9c4.2,0,6.8-3.4,6.8-7.9C111.2,92.6,108.5,89.2,104.3,89.2"/>
	<path fill="#221F1F" d="M120.5,95.2v10.3c0,1.3-2,1.3-2,0V88.8c0-1.3,2-1.3,2,0v1.1c1.5-1.7,3.6-2.7,6-2.7c1.3,0,1.3,2,0,2
		C123.2,89.2,120.5,91.9,120.5,95.2"/>
	<path fill="#221F1F" d="M144.4,105.5v-1.7c-1.5,2-3.8,3.4-6.8,3.4c-5.6,0-8.9-4.6-8.9-10c0-5.3,3.1-10,8.9-10c3,0,5.3,1.3,6.8,3.4
		v-8.2c0-1.3,2-1.3,2,0v14.7v8.4C146.4,106.8,144.4,106.8,144.4,105.5 M137.6,89.2c-4.2,0-6.8,3.4-6.8,7.9s2.6,7.9,6.8,7.9
		s6.8-3.4,6.8-7.9S141.7,89.2,137.6,89.2"/>
	<path fill="#221F1F" d="M152.4,84.4c-1.1,0-2-0.9-2-2s0.9-2,2-2c1.1,0,2,0.9,2,2S153.6,84.4,152.4,84.4 M151.4,105.5V88.8
		c0-1.3,2-1.3,2,0v16.7C153.4,106.8,151.4,106.8,151.4,105.5"/>
	<path fill="#221F1F" d="M176.8,106.5c-1.2,0-2.8-0.6-3.5-2.7c-1.5,2-3.8,3.4-6.8,3.4c-5.6,0-8.9-4.6-8.9-10c0-5.3,3.1-10,8.9-10
		c3,0,5.3,1.3,6.8,3.4v-1.7c0-1.3,2-1.3,2,0v14.2c0,0.9,0.7,1.5,1.5,1.5C178.2,104.5,178.2,106.5,176.8,106.5L176.8,106.5z
		 M166.5,89.2c-4.2,0-6.8,3.4-6.8,7.9s2.6,7.9,6.8,7.9s6.8-3.4,6.8-7.9C173.3,92.6,170.7,89.2,166.5,89.2"/>
	<path fill="#221F1F" d="M194.7,105.5V95.2c0-3.4-2.7-6-6-6s-6,2.7-6,6v10.3c0,1.3-2,1.3-2,0V88.8c0-1.3,2-1.3,2,0v1.1
		c1.5-1.7,3.6-2.7,6-2.7c4.4,0,8,3.6,8,8v10.3C196.7,106.8,194.7,106.8,194.7,105.5"/>
	<path fill="#221F1F" d="M39.1,98.1c-1.3,0-1.3-2,0-2h11.1c1.3,0,1.3,2,0,2H39.1z"/>
	<path fill="#221F1F" d="M9.6,124.9c0,1.8-1,3.3-2.9,3.3c-0.7,0-1.2-0.2-1.6-0.5c-0.3,0.5-1.3,0.4-1.3-0.3v-7c0-0.5,0.3-0.6,0.6-0.6
		c0.3,0,0.6,0.2,0.6,0.6v1.7c0.5-0.3,0.9-0.5,1.6-0.5C8.6,121.6,9.6,123.1,9.6,124.9 M8.3,124.9c0-1.3-0.7-2-1.6-2
		c-0.9,0-1.6,0.7-1.6,2s0.7,2,1.6,2C7.7,126.9,8.3,126.2,8.3,124.9"/>
	<path fill="#221F1F" d="M13.3,129.6c-0.2,0.5-0.8,0.9-1.3,0.9h-0.2c-0.5,0-0.6-0.3-0.6-0.6s0.2-0.6,0.6-0.6H12c0.1,0,0.1,0,0.2-0.1
		l0.9-1.9l-2.1-4.4c-0.4-0.8,0.8-1.4,1.2-0.5l1.6,3.4l1.6-3.4c0.3-0.8,1.6-0.2,1.2,0.5L13.3,129.6z"/>
	<path fill="#221F1F" d="M28.8,127.4c0,0.5-0.3,0.6-0.6,0.6c-0.3,0-0.6-0.2-0.6-0.6V123l-1.7,3.2c-0.1,0.1-0.1,0.2-0.2,0.2
		c-0.2,0.2-0.3,0.2-0.5,0.2c-0.2,0-0.4-0.1-0.5-0.2c-0.1-0.1-0.1-0.2-0.2-0.2l-1.8-3.2v4.4c0,0.5-0.3,0.6-0.6,0.6s-0.6-0.2-0.6-0.6
		v-6.9c0-0.2,0-0.3,0.1-0.4c0.1-0.2,0.2-0.3,0.5-0.3c0.3-0.1,0.5-0.1,0.8,0.4l2.4,4.5l2.4-4.5c0.2-0.5,0.5-0.5,0.8-0.4
		c0.2,0.1,0.3,0.2,0.5,0.3c0.1,0.2,0.1,0.2,0.1,0.4v7H28.8z"/>
	<path fill="#221F1F" d="M32.6,120c0,0.5-0.5,1-1,1s-1-0.5-1-1s0.5-1,1-1C32.2,119.1,32.6,119.4,32.6,120 M32.3,127.4
		c0,0.5-0.4,0.6-0.6,0.6c-0.3,0-0.6-0.2-0.6-0.6v-4.9c0-0.5,0.4-0.6,0.6-0.6c0.3,0,0.6,0.2,0.6,0.6V127.4z"/>
	<path fill="#221F1F" d="M35.8,126.7c0.7,0.2,0.6,1.3-0.2,1.3c-0.6,0-1.2-0.5-1.2-1.2v-6.4c0-0.5,0.3-0.6,0.6-0.6s0.6,0.2,0.6,0.6
		L35.8,126.7L35.8,126.7z"/>
	<path fill="#221F1F" d="M39.3,126.7c0.7,0.2,0.6,1.3-0.2,1.3c-0.6,0-1.2-0.5-1.2-1.2v-6.4c0-0.5,0.3-0.6,0.6-0.6s0.6,0.2,0.6,0.6
		L39.3,126.7L39.3,126.7z"/>
	<path fill="#221F1F" d="M47.4,124.9c0,1.8-1,3.3-2.9,3.3c-0.7,0-1.2-0.2-1.6-0.5c-0.3,0.5-1.3,0.4-1.3-0.3v-7
		c0-0.5,0.3-0.6,0.6-0.6s0.6,0.2,0.6,0.6v1.7c0.5-0.3,0.9-0.5,1.6-0.5C46.3,121.6,47.4,123.1,47.4,124.9 M46,124.9
		c0-1.3-0.7-2-1.6-2c-0.9,0-1.6,0.7-1.6,2s0.7,2,1.6,2C45.3,126.9,46,126.2,46,124.9"/>
	<path fill="#221F1F" d="M51.9,122.9c-0.7,0-1.3,0.5-1.3,1.3v3.1c0,0.5-0.3,0.6-0.6,0.6s-0.6-0.2-0.6-0.6v-3.1v-1.8
		c0-0.7,0.9-0.9,1.2-0.4c0.5-0.3,0.9-0.5,1.5-0.5c0.5,0,0.6,0.3,0.6,0.6C52.5,122.6,52.3,122.9,51.9,122.9"/>
	<path fill="#221F1F" d="M59.3,124.9c0,1.8-1,3.3-2.9,3.3c-1.9,0-2.9-1.5-2.9-3.3s1-3.3,2.9-3.3C58.3,121.6,59.3,123.1,59.3,124.9
		 M58,124.9c0-1.3-0.7-2-1.6-2c-0.9,0-1.6,0.7-1.6,2s0.7,2,1.6,2C57.3,126.9,58,126.2,58,124.9"/>
	<path fill="#221F1F" d="M66.8,124.9c0,1.8-1,3.3-2.9,3.3s-2.9-1.5-2.9-3.3s1-3.3,2.9-3.3C65.7,121.6,66.8,123.1,66.8,124.9
		 M65.5,124.9c0-1.3-0.7-2-1.6-2s-1.6,0.7-1.6,2s0.7,2,1.6,2S65.5,126.2,65.5,124.9"/>
	<path fill="#221F1F" d="M73.4,127c0.5,0.7-0.6,1.4-1.1,0.7l-1.5-2.3l-0.8,0.8l0,0v1.2c0,0.5-0.4,0.6-0.6,0.6
		c-0.3,0-0.6-0.2-0.6-0.6v-7c0-0.5,0.4-0.6,0.6-0.6c0.3,0,0.6,0.2,0.6,0.6v3.9l2.3-2.3c0.6-0.6,1.6,0.3,0.9,0.9l-1.5,1.5L73.4,127z"
		/>
	<path fill="#221F1F" d="M84.2,127.4c0,0.5-0.4,0.6-0.6,0.6c-0.3,0-0.6-0.2-0.6-0.6v-3.1h-3.2v3.1c0,0.5-0.4,0.6-0.6,0.6
		c-0.3,0-0.6-0.2-0.6-0.6v-7c0-0.5,0.4-0.6,0.6-0.6c0.3,0,0.6,0.2,0.6,0.6v2.5h3.2v-2.5c0-0.5,0.4-0.6,0.6-0.6
		c0.3,0,0.6,0.2,0.6,0.6V127.4z"/>
	<path fill="#221F1F" d="M91.9,124.9c0,0.3-0.2,0.6-0.6,0.6h-3.8c0.2,0.9,0.8,1.3,1.5,1.3c0.4,0,0.8-0.2,1-0.4
		c0.6-0.6,1.6,0.3,1,0.9c0,0-0.1,0.1-0.2,0.2c-0.5,0.4-1.2,0.6-1.9,0.6c-1.9,0-2.9-1.6-2.9-3.3c0-1.7,1-3.3,2.9-3.3
		c1.7,0,2.7,1.3,2.9,2.9C91.9,124.6,91.9,124.8,91.9,124.9 M90.6,124.2c-0.2-0.9-0.8-1.3-1.5-1.3c-0.8,0-1.3,0.5-1.5,1.3H90.6z"/>
	<path fill="#221F1F" d="M100.1,127.3c0,0.4-0.3,0.7-0.7,0.7c-0.5,0-0.9-0.2-1.1-0.5c-0.5,0.5-1.2,0.8-2,0.8c-1.9,0-2.9-1.6-2.9-3.3
		c0-1.7,1-3.3,2.9-3.3c0.7,0,1.3,0.2,1.6,0.5c0.2-0.2,0.4-0.3,0.5-0.3c0.4,0,0.6,0.3,0.6,0.6v3.9c0,0.2,0.1,0.2,0.2,0.2
		C99.8,126.6,100.1,126.9,100.1,127.3 M97.9,124.9c0-1.3-0.7-2-1.6-2c-0.9,0-1.6,0.7-1.6,2s0.7,2,1.6,2
		C97.2,126.9,97.9,126.2,97.9,124.9"/>
	<path fill="#221F1F" d="M102.9,126.7c0.7,0.2,0.6,1.3-0.2,1.3c-0.6,0-1.2-0.5-1.2-1.2v-6.4c0-0.5,0.3-0.6,0.6-0.6
		c0.3,0,0.6,0.2,0.6,0.6L102.9,126.7L102.9,126.7z"/>
	<path fill="#221F1F" d="M107.6,122.5c0,0.4-0.3,0.6-0.6,0.6h-0.4v3.4c0,0.1,0.1,0.2,0.2,0.2h0.2c0.4,0,0.6,0.3,0.6,0.6
		c0,0.3-0.3,0.6-0.6,0.6l0,0c-1.3,0-1.7-0.7-1.7-1.7V123l0,0c-0.5,0-0.6-0.4-0.6-0.6c0-0.3,0.2-0.6,0.6-0.6l0,0v-1.4
		c0-0.5,0.4-0.6,0.6-0.6s0.6,0.2,0.6,0.6v1.4h0.4C107.3,121.8,107.6,122.2,107.6,122.5"/>
	<path fill="#221F1F" d="M114.5,127.4c0,0.5-0.3,0.6-0.6,0.6c-0.3,0-0.6-0.2-0.6-0.6v-3.1c0-0.7-0.5-1.3-1.3-1.3
		c-0.7,0-1.3,0.5-1.3,1.3v3.1c0,0.5-0.3,0.7-0.6,0.7c-0.3,0-0.6-0.2-0.6-0.7v-7c0-0.5,0.3-0.6,0.6-0.6c0.3,0,0.6,0.2,0.6,0.6v1.6
		c0.4-0.2,0.9-0.4,1.3-0.4c1.4,0,2.7,1.2,2.7,2.7L114.5,127.4L114.5,127.4z"/>
	<path fill="#221F1F" d="M121.4,122.5c0.6,0.6-0.4,1.6-1,0.9c-0.2-0.2-0.6-0.5-1.1-0.5c-0.9,0-1.6,0.7-1.6,2s0.7,2,1.6,2
		c0.5,0,0.9-0.2,1.1-0.5c0.6-0.6,1.6,0.2,1,0.9c-0.5,0.5-1.3,0.9-2.1,0.9c-1.9,0-2.9-1.5-2.9-3.3s1-3.3,2.9-3.3
		C120.1,121.6,120.8,122,121.4,122.5"/>
	<path fill="#221F1F" d="M129.7,127.3c0,0.4-0.3,0.7-0.7,0.7c-0.5,0-0.9-0.2-1.1-0.5c-0.5,0.5-1.2,0.8-2,0.8c-1.9,0-2.9-1.6-2.9-3.3
		c0-1.7,1-3.3,2.9-3.3c0.7,0,1.3,0.2,1.6,0.5c0.2-0.2,0.4-0.3,0.5-0.3c0.4,0,0.6,0.3,0.6,0.6v3.9c0,0.2,0.1,0.2,0.2,0.2
		C129.4,126.6,129.7,126.9,129.7,127.3 M127.5,124.9c0-1.3-0.7-2-1.6-2s-1.6,0.7-1.6,2s0.7,2,1.6,2S127.5,126.2,127.5,124.9"/>
	<path fill="#221F1F" d="M133.8,122.9c-0.7,0-1.3,0.5-1.3,1.3v3.1c0,0.5-0.3,0.6-0.6,0.6c-0.3,0-0.6-0.2-0.6-0.6v-3.1v-1.8
		c0-0.7,0.9-0.9,1.2-0.4c0.5-0.3,0.9-0.5,1.5-0.5c0.5,0,0.6,0.3,0.6,0.6C134.5,122.6,134.2,122.9,133.8,122.9"/>
	<path fill="#221F1F" d="M141,124.9c0,0.3-0.2,0.6-0.6,0.6h-3.8c0.2,0.9,0.8,1.3,1.5,1.3c0.4,0,0.8-0.2,1-0.4c0.6-0.6,1.6,0.3,1,0.9
		c0,0-0.1,0.1-0.2,0.2c-0.5,0.4-1.2,0.6-1.9,0.6c-1.9,0-2.9-1.6-2.9-3.3c0-1.7,1-3.3,2.9-3.3c1.7,0,2.7,1.3,2.9,2.9
		C141,124.6,141,124.8,141,124.9 M139.6,124.2c-0.2-0.9-0.8-1.3-1.5-1.3c-0.8,0-1.3,0.5-1.5,1.3H139.6z"/>
</g>
</svg>
